<svg xmlns="http://www.w3.org/2000/svg" viewBox="0 0 1180 1180" role="img" aria-label="רואה יורה"><g transform="translate(54,242) scale(1.0000)"><path fill="#2A3346" fill-rule="evenodd" d="M528,695C501,693 473,677 465,658C463,653 462,652 460,652C458,652 443,653 426,654C409,655 375,657 349,658C323,660 278,662 249,664C220,666 173,668 146,669C120,671 80,673 59,674C1,677 1,677 1,669C1,666 13,625 29,573C33,559 40,535 45,520C49,506 56,484 59,472C63,459 69,439 73,427C77,415 83,393 88,378C92,363 100,340 104,327C124,261 127,252 129,251C137,247 156,246 157,249C160,255 156,259 146,260C138,261 139,260 131,286C128,298 121,319 117,332C113,346 105,372 99,390C94,407 89,426 87,430C85,435 73,477 60,522C39,592 28,628 19,656C17,663 16,663 41,661C53,661 86,659 113,658C173,655 187,654 252,650C324,646 373,643 390,642C399,642 419,641 434,640C471,638 471,638 477,649C499,693 571,694 595,650C597,645 601,641 602,640L605,638L647,640C670,641 702,643 718,644C752,645 800,648 858,652C881,653 925,655 956,657C988,659 1020,660 1029,661C1037,662 1047,662 1050,662L1056,662L1052,651C1050,645 1046,630 1043,619C1033,587 1014,526 1007,504C999,478 983,425 971,388C928,250 933,262 923,260C913,258 909,251 916,247C921,245 941,249 943,253C944,255 958,297 965,320C967,327 973,345 978,360C982,375 990,399 994,412C1004,446 1009,461 1024,512C1032,536 1041,564 1044,574C1047,583 1053,603 1057,618C1074,673 1073,670 1072,673C1070,678 1083,678 933,669C880,666 821,663 802,662C782,661 741,659 710,657C680,655 645,653 634,652C622,652 612,651 612,651C611,651 610,654 608,657C597,677 574,692 548,695C540,696 537,696 528,695ZM530,649C528,647 525,641 521,631C506,599 498,589 474,571C425,534 353,527 271,552C262,554 249,558 242,560C172,581 117,587 87,577C74,573 74,575 91,518C94,510 99,491 103,476C108,462 115,439 119,424C123,409 131,383 137,365C162,280 184,207 186,206C189,203 194,204 203,206C227,214 258,212 307,201C378,183 426,189 473,219C490,230 514,257 514,265C514,273 506,274 501,266C464,211 400,193 313,213C262,225 229,227 205,221C195,218 197,216 188,246C183,260 177,282 173,296C168,309 158,342 150,370C142,399 131,436 125,453C120,470 115,488 113,492C112,497 107,515 102,532C97,549 93,564 93,565C95,568 131,570 153,567C178,563 193,560 241,546C286,533 300,530 326,526C410,514 492,547 523,605C530,618 529,621 530,525C530,416 531,408 545,381C560,351 579,335 632,308C686,280 708,264 723,240C761,182 746,101 688,58C653,32 600,13 562,13C559,13 557,13 556,11C555,10 554,9 553,9C552,9 552,9 553,10C554,12 551,12 531,12C519,13 503,14 497,14C491,15 485,16 485,16C485,15 490,14 495,14C497,13 499,12 500,11C502,9 502,9 502,10C502,11 502,12 503,12C504,12 504,11 504,10C504,9 505,9 507,9C509,10 510,10 510,8C510,8 510,7 511,7C514,7 511,4 509,3C504,3 504,2 509,2C511,2 520,2 530,1C547,0 557,1 556,2C556,3 558,4 560,4C560,4 561,5 562,5C563,6 564,5 564,3C564,2 563,2 562,2C561,3 560,2 559,2C557,0 574,2 594,5C599,5 601,7 598,7C596,7 595,10 596,11C597,11 597,11 597,10C597,9 598,9 600,9C601,9 602,9 602,10C602,10 603,11 604,11C605,11 606,10 605,9C605,6 605,6 623,12C706,35 758,95 758,167C758,234 725,277 644,317C637,321 636,322 641,322C665,322 698,351 727,396C744,423 748,430 756,440C780,472 803,489 838,501C855,506 856,508 841,508C818,508 783,491 760,467C745,452 739,444 714,404C670,331 624,315 581,357C547,389 543,407 543,532L543,612L546,607C582,546 663,513 746,526C775,530 778,531 854,552C905,566 936,571 961,568C981,566 981,567 976,550C965,516 958,492 950,464C938,427 927,389 913,343C895,288 890,270 884,249C880,235 875,220 875,219C874,219 870,220 866,221C836,229 780,223 780,212C780,205 783,205 807,209C831,213 851,212 869,206C886,200 883,195 908,278C911,288 918,311 923,329C929,347 934,366 936,371C938,376 943,394 948,410C957,439 965,465 974,496C976,504 980,518 983,527C997,573 997,572 989,576C968,588 912,583 843,563C829,559 810,554 802,552C733,532 675,533 628,553C591,569 559,602 548,637C543,650 537,654 530,649ZM558,642C552,641 552,637 558,635C561,633 563,632 564,628C574,609 604,588 634,577C684,561 738,564 810,587C889,611 925,618 970,618C997,618 997,619 992,604C988,591 988,592 991,588C998,582 1001,585 1006,603C1015,629 1014,630 978,632C933,633 887,625 802,599C699,567 632,576 583,626C566,643 565,644 558,642ZM501,640C499,639 494,634 490,629C464,599 432,585 384,581C353,578 320,584 269,599C173,628 129,636 80,631C59,629 58,627 66,604C71,588 72,587 76,587C83,587 83,591 79,606C77,612 76,616 76,617C78,618 97,619 112,619C155,617 188,610 267,585C376,551 468,568 507,629C509,632 511,635 512,635C514,636 513,640 511,641C508,643 505,642 501,640ZM277,155C277,155 277,154 278,154C279,154 279,154 279,153C278,151 284,142 286,143C287,143 286,145 283,148C278,155 277,157 277,155ZM307,115C308,113 309,112 310,112C310,112 309,113 308,115C307,117 306,118 305,118C305,118 306,117 307,115ZM310,103C311,102 312,101 313,101C313,101 313,102 312,103C311,104 310,105 310,105C309,105 310,104 310,103ZM316,97C316,96 318,95 318,95C318,95 317,96 316,97C316,98 314,99 314,99C314,99 315,98 316,97ZM364,62C367,61 369,59 370,59C370,59 372,58 373,56C375,55 377,54 377,54C378,54 379,53 381,52C386,50 384,52 378,55C375,57 370,60 367,62C360,67 358,67 364,62ZM363,55C363,55 364,54 366,53C367,52 367,52 366,53C365,54 364,55 364,55C363,55 363,55 363,55ZM419,34C421,33 422,32 423,32C424,32 424,32 423,33C422,33 421,34 420,34C418,35 418,35 419,34ZM428,29C429,28 430,27 432,27C433,27 435,26 437,25C439,23 449,21 452,22C453,22 454,23 453,23C451,23 433,29 429,31C427,31 427,31 428,29ZM424,22C425,22 426,21 428,20L432,19L429,21C426,23 423,24 424,22ZM456,21C456,20 457,20 458,20C458,20 459,20 458,21C458,22 457,22 457,22C456,22 456,22 456,21ZM438,19C436,18 437,17 445,15C450,13 455,12 455,12C455,13 454,13 453,14C450,14 450,15 450,17C450,17 448,17 446,17C443,17 442,17 441,18C441,20 440,20 438,19ZM601,13C602,14 602,14 602,13C602,10 599,11 598,15C597,17 597,17 599,15C600,12 600,12 601,13ZM593,9C594,8 593,7 591,9C590,9 589,10 589,9C587,9 587,11 588,13C589,14 590,14 591,12C591,11 592,10 593,9ZM572,8C572,7 572,7 571,7C570,7 570,7 570,8C570,9 570,9 571,9C572,9 572,9 572,8ZM487,5C488,4 489,4 490,4C491,4 491,4 490,5C487,6 485,6 487,5ZM568,4C568,3 568,3 567,3C566,3 566,3 566,4C566,5 566,5 567,5C568,5 568,5 568,4ZM574,4C574,3 574,3 573,3C572,3 572,3 572,4C572,5 572,5 573,5C574,5 574,5 574,4Z"/><path fill="#A8875E" fill-rule="evenodd" d="M758,499C723,492 696,470 666,424C638,382 622,369 597,369C582,369 587,365 603,364C633,363 653,377 682,419C710,461 732,482 758,495C772,501 772,502 758,499ZM513,454C499,406 501,354 521,314C536,282 548,267 590,224C635,180 646,165 655,140C662,119 662,94 655,76C653,69 656,72 659,79C681,128 665,176 605,232C524,309 504,354 515,444C516,460 516,463 513,454ZM526,379C526,372 535,346 544,331C558,304 574,289 617,260C674,221 693,201 706,169C709,161 712,156 711,161C710,162 710,167 709,170C703,205 678,238 634,266C566,309 551,326 527,380C526,382 526,382 526,379ZM562,216C562,215 564,210 566,205C591,155 601,107 596,60C595,53 597,57 601,67C612,102 608,143 587,183C580,199 562,221 562,216ZM495,191C493,188 490,185 488,183C466,156 410,128 370,125C351,123 352,120 372,118C422,113 472,141 498,190C503,198 502,199 495,191ZM547,177C547,169 547,162 547,160C546,159 546,154 546,149C544,121 534,87 521,59C512,41 512,39 521,47C548,73 562,129 552,174C552,179 550,184 550,186C548,196 547,193 547,177ZM523,190C523,189 521,183 518,177C504,134 470,92 432,69C421,62 424,61 439,66C478,79 505,110 518,158C523,173 526,194 523,190ZM285,142C285,138 297,120 309,106C311,104 315,98 319,94C327,84 338,73 347,67C350,64 355,61 358,59C360,57 363,55 364,55C364,55 366,54 366,53C367,52 369,51 370,51C371,51 372,50 372,49C373,49 373,48 374,48C375,48 376,47 378,45C379,44 381,43 382,42C383,42 386,41 388,39C397,33 421,22 424,23C425,23 428,22 429,21C433,18 437,18 439,19C440,20 440,20 441,19C442,17 444,17 446,17C448,17 450,17 449,17C448,15 460,10 468,9C470,8 473,7 474,7C475,7 479,6 482,6C486,5 491,5 495,4C499,3 503,3 506,3C508,3 510,3 511,3C511,2 512,3 512,5C512,6 512,7 511,7C510,7 510,8 510,8C510,10 509,10 507,9C505,9 504,9 504,10C504,11 504,12 503,12C502,12 502,11 502,10C502,9 502,9 500,11C499,12 497,13 494,14C491,14 487,15 485,15C483,16 477,17 474,18C470,18 465,19 463,20C462,20 459,21 458,20C457,20 456,20 456,21C456,22 455,22 453,22C447,21 439,23 437,25C436,26 433,27 432,27C430,27 429,28 428,29C427,30 426,31 425,32C424,32 413,37 400,43C388,49 378,54 377,54C377,54 375,55 373,56C372,58 370,59 370,59C369,59 363,63 350,74C347,77 342,81 339,83C325,95 310,111 296,130C287,142 285,144 285,142ZM598,15C599,11 602,10 602,13C602,14 602,14 601,13C600,12 600,12 599,15C597,17 597,17 598,15ZM588,13C587,11 587,9 589,9C589,10 590,9 591,9C593,7 594,8 593,9C592,10 591,11 591,12C590,14 589,14 588,13ZM553,11C552,10 552,9 553,9C554,9 555,10 555,11C556,11 556,12 555,12C555,12 554,11 553,11ZM596,10C594,8 599,6 602,7C605,7 607,11 604,11C603,11 602,10 602,10C602,9 597,9 597,10C597,11 596,11 596,10ZM570,8C570,7 570,7 571,7C572,7 572,7 572,8C572,9 572,9 571,9C570,9 570,9 570,8ZM554,6C554,5 554,5 555,6C556,6 556,6 556,7C556,7 556,7 555,7C554,7 554,7 554,6ZM562,5C561,5 561,4 560,4C558,4 556,3 557,2C557,1 558,1 559,2C560,3 562,3 562,2C563,2 564,2 564,3C564,5 563,6 562,5ZM522,4C522,3 522,3 523,4C524,4 524,4 524,5C524,5 524,5 523,5C522,5 522,5 522,4ZM566,4C566,3 566,3 567,3C568,3 568,3 568,4C568,5 568,5 567,5C566,5 566,5 566,4ZM572,4C572,3 572,3 573,3C574,3 574,3 574,4C574,5 574,5 573,5C572,5 572,5 572,4Z"/></g></svg>